<svg xmlns="http://www.w3.org/2000/svg" xmlns:xlink="http://www.w3.org/1999/xlink" width="500" zoomAndPan="magnify" viewBox="0 0 375 374.999991" height="500" preserveAspectRatio="xMidYMid meet" version="1.0"><defs><filter x="0%" y="0%" width="100%" height="100%" id="b936053277"><feColorMatrix values="0 0 0 0 1 0 0 0 0 1 0 0 0 0 1 0 0 0 1 0" color-interpolation-filters="sRGB"/></filter><g/><clipPath id="e464ee0d92"><path d="M 154.914062 104.578125 L 220.164062 104.578125 L 220.164062 158.578125 L 154.914062 158.578125 Z M 154.914062 104.578125 " clip-rule="nonzero"/></clipPath><clipPath id="e8291cb738"><path d="M 0 78.042969 L 375 78.042969 L 375 328.542969 L 0 328.542969 Z M 0 78.042969 " clip-rule="nonzero"/></clipPath><clipPath id="ab17132a0e"><path d="M 0 0.0429688 L 375 0.0429688 L 375 250.542969 L 0 250.542969 Z M 0 0.0429688 " clip-rule="nonzero"/></clipPath><clipPath id="b89ca02af8"><path d="M 22.378906 0.0429688 L 352.378906 0.0429688 L 352.378906 250.542969 L 22.378906 250.542969 Z M 22.378906 0.0429688 " clip-rule="nonzero"/></clipPath><linearGradient x1="166.147995" gradientTransform="matrix(0.749161, 0, 0, 0.751673, 62.90683, 86.950888)" y1="217.638036" x2="166.147995" gradientUnits="userSpaceOnUse" y2="-115.618369" id="b5d9d45825"><stop stop-opacity="1" stop-color="rgb(0%, 0%, 0%)" offset="0"/><stop stop-opacity="1" stop-color="rgb(0%, 0%, 0%)" offset="0.25"/><stop stop-opacity="1" stop-color="rgb(0%, 0%, 0%)" offset="0.28125"/><stop stop-opacity="1" stop-color="rgb(0%, 0%, 0%)" offset="0.296875"/><stop stop-opacity="1" stop-color="rgb(0.0686646%, 0.0656128%, 0.265503%)" offset="0.300781"/><stop stop-opacity="1" stop-color="rgb(0.138855%, 0.132751%, 0.532532%)" offset="0.304688"/><stop stop-opacity="1" stop-color="rgb(0.338745%, 0.326538%, 1.301575%)" offset="0.308594"/><stop stop-opacity="1" stop-color="rgb(0.540161%, 0.520325%, 2.070618%)" offset="0.3125"/><stop stop-opacity="1" stop-color="rgb(0.741577%, 0.712585%, 2.839661%)" offset="0.316406"/><stop stop-opacity="1" stop-color="rgb(0.942993%, 0.906372%, 3.610229%)" offset="0.320312"/><stop stop-opacity="1" stop-color="rgb(1.142883%, 1.100159%, 4.379272%)" offset="0.324219"/><stop stop-opacity="1" stop-color="rgb(1.344299%, 1.293945%, 5.149841%)" offset="0.328125"/><stop stop-opacity="1" stop-color="rgb(1.545715%, 1.486206%, 5.918884%)" offset="0.332031"/><stop stop-opacity="1" stop-color="rgb(1.747131%, 1.679993%, 6.689453%)" offset="0.335938"/><stop stop-opacity="1" stop-color="rgb(1.948547%, 1.873779%, 7.458496%)" offset="0.339844"/><stop stop-opacity="1" stop-color="rgb(2.149963%, 2.067566%, 8.227539%)" offset="0.34375"/><stop stop-opacity="1" stop-color="rgb(2.349854%, 2.259827%, 8.996582%)" offset="0.347656"/><stop stop-opacity="1" stop-color="rgb(2.55127%, 2.453613%, 9.767151%)" offset="0.351563"/><stop stop-opacity="1" stop-color="rgb(2.752686%, 2.6474%, 10.536194%)" offset="0.355469"/><stop stop-opacity="1" stop-color="rgb(2.954102%, 2.841187%, 11.306763%)" offset="0.359375"/><stop stop-opacity="1" stop-color="rgb(3.153992%, 3.033447%, 12.075806%)" offset="0.363281"/><stop stop-opacity="1" stop-color="rgb(3.355408%, 3.227234%, 12.846375%)" offset="0.367188"/><stop stop-opacity="1" stop-color="rgb(3.556824%, 3.421021%, 13.615417%)" offset="0.371094"/><stop stop-opacity="1" stop-color="rgb(3.75824%, 3.614807%, 14.385986%)" offset="0.375"/><stop stop-opacity="1" stop-color="rgb(3.95813%, 3.807068%, 15.155029%)" offset="0.378906"/><stop stop-opacity="1" stop-color="rgb(4.159546%, 4.000854%, 15.924072%)" offset="0.382812"/><stop stop-opacity="1" stop-color="rgb(4.360962%, 4.194641%, 16.693115%)" offset="0.386719"/><stop stop-opacity="1" stop-color="rgb(4.562378%, 4.388428%, 17.463684%)" offset="0.390625"/><stop stop-opacity="1" stop-color="rgb(4.763794%, 4.580688%, 18.232727%)" offset="0.394531"/><stop stop-opacity="1" stop-color="rgb(4.96521%, 4.774475%, 19.003296%)" offset="0.398438"/><stop stop-opacity="1" stop-color="rgb(5.1651%, 4.968262%, 19.772339%)" offset="0.402344"/><stop stop-opacity="1" stop-color="rgb(5.366516%, 5.162048%, 20.542908%)" offset="0.40625"/><stop stop-opacity="1" stop-color="rgb(5.567932%, 5.354309%, 21.311951%)" offset="0.410156"/><stop stop-opacity="1" stop-color="rgb(5.769348%, 5.548096%, 22.080994%)" offset="0.414063"/><stop stop-opacity="1" stop-color="rgb(5.969238%, 5.740356%, 22.850037%)" offset="0.417969"/><stop stop-opacity="1" stop-color="rgb(6.170654%, 5.934143%, 23.620605%)" offset="0.421875"/><stop stop-opacity="1" stop-color="rgb(6.37207%, 6.12793%, 24.389648%)" offset="0.425781"/><stop stop-opacity="1" stop-color="rgb(6.573486%, 6.321716%, 25.160217%)" offset="0.429688"/><stop stop-opacity="1" stop-color="rgb(6.773376%, 6.513977%, 25.92926%)" offset="0.433594"/><stop stop-opacity="1" stop-color="rgb(6.974792%, 6.707764%, 26.699829%)" offset="0.4375"/><stop stop-opacity="1" stop-color="rgb(7.176208%, 6.90155%, 27.468872%)" offset="0.441406"/><stop stop-opacity="1" stop-color="rgb(7.377625%, 7.095337%, 28.237915%)" offset="0.445313"/><stop stop-opacity="1" stop-color="rgb(7.577515%, 7.287598%, 29.006958%)" offset="0.449219"/><stop stop-opacity="1" stop-color="rgb(7.778931%, 7.481384%, 29.777527%)" offset="0.453125"/><stop stop-opacity="1" stop-color="rgb(7.980347%, 7.675171%, 30.54657%)" offset="0.457031"/><stop stop-opacity="1" stop-color="rgb(8.181763%, 7.868958%, 31.317139%)" offset="0.460938"/><stop stop-opacity="1" stop-color="rgb(8.383179%, 8.061218%, 32.086182%)" offset="0.464844"/><stop stop-opacity="1" stop-color="rgb(8.584595%, 8.255005%, 32.85675%)" offset="0.46875"/><stop stop-opacity="1" stop-color="rgb(8.784485%, 8.448792%, 33.625793%)" offset="0.472656"/><stop stop-opacity="1" stop-color="rgb(8.985901%, 8.642578%, 34.396362%)" offset="0.476563"/><stop stop-opacity="1" stop-color="rgb(9.187317%, 8.834839%, 35.165405%)" offset="0.480469"/><stop stop-opacity="1" stop-color="rgb(9.388733%, 9.028625%, 35.934448%)" offset="0.484375"/><stop stop-opacity="1" stop-color="rgb(9.588623%, 9.222412%, 36.703491%)" offset="0.488281"/><stop stop-opacity="1" stop-color="rgb(9.790039%, 9.416199%, 37.47406%)" offset="0.492188"/><stop stop-opacity="1" stop-color="rgb(9.991455%, 9.608459%, 38.243103%)" offset="0.496094"/><stop stop-opacity="1" stop-color="rgb(10.192871%, 9.802246%, 39.013672%)" offset="0.5"/><stop stop-opacity="1" stop-color="rgb(10.392761%, 9.996033%, 39.782715%)" offset="0.503906"/><stop stop-opacity="1" stop-color="rgb(10.594177%, 10.189819%, 40.553284%)" offset="0.507812"/><stop stop-opacity="1" stop-color="rgb(10.795593%, 10.38208%, 41.322327%)" offset="0.511719"/><stop stop-opacity="1" stop-color="rgb(10.997009%, 10.575867%, 42.09137%)" offset="0.515625"/><stop stop-opacity="1" stop-color="rgb(11.198425%, 10.769653%, 42.860413%)" offset="0.519531"/><stop stop-opacity="1" stop-color="rgb(11.399841%, 10.96344%, 43.630981%)" offset="0.523438"/><stop stop-opacity="1" stop-color="rgb(11.599731%, 11.155701%, 44.400024%)" offset="0.527344"/><stop stop-opacity="1" stop-color="rgb(11.801147%, 11.349487%, 45.170593%)" offset="0.53125"/><stop stop-opacity="1" stop-color="rgb(12.002563%, 11.543274%, 45.939636%)" offset="0.535156"/><stop stop-opacity="1" stop-color="rgb(12.203979%, 11.737061%, 46.710205%)" offset="0.539063"/><stop stop-opacity="1" stop-color="rgb(12.40387%, 11.929321%, 47.479248%)" offset="0.542969"/><stop stop-opacity="1" stop-color="rgb(12.605286%, 12.123108%, 48.248291%)" offset="0.546875"/><stop stop-opacity="1" stop-color="rgb(12.806702%, 12.316895%, 49.017334%)" offset="0.550781"/><stop stop-opacity="1" stop-color="rgb(13.008118%, 12.510681%, 49.787903%)" offset="0.554688"/><stop stop-opacity="1" stop-color="rgb(13.208008%, 12.702942%, 50.556946%)" offset="0.558594"/><stop stop-opacity="1" stop-color="rgb(13.409424%, 12.896729%, 51.327515%)" offset="0.5625"/><stop stop-opacity="1" stop-color="rgb(13.61084%, 13.090515%, 52.096558%)" offset="0.566406"/><stop stop-opacity="1" stop-color="rgb(13.812256%, 13.284302%, 52.867126%)" offset="0.570313"/><stop stop-opacity="1" stop-color="rgb(14.013672%, 13.476562%, 53.636169%)" offset="0.574219"/><stop stop-opacity="1" stop-color="rgb(14.215088%, 13.670349%, 54.406738%)" offset="0.578125"/><stop stop-opacity="1" stop-color="rgb(14.414978%, 13.864136%, 55.175781%)" offset="0.582031"/><stop stop-opacity="1" stop-color="rgb(14.616394%, 14.057922%, 55.944824%)" offset="0.585938"/><stop stop-opacity="1" stop-color="rgb(14.81781%, 14.250183%, 56.713867%)" offset="0.589844"/><stop stop-opacity="1" stop-color="rgb(15.019226%, 14.44397%, 57.484436%)" offset="0.59375"/><stop stop-opacity="1" stop-color="rgb(15.219116%, 14.637756%, 58.253479%)" offset="0.597656"/><stop stop-opacity="1" stop-color="rgb(15.420532%, 14.831543%, 59.024048%)" offset="0.601562"/><stop stop-opacity="1" stop-color="rgb(15.621948%, 15.023804%, 59.793091%)" offset="0.605469"/><stop stop-opacity="1" stop-color="rgb(15.823364%, 15.21759%, 60.56366%)" offset="0.609375"/><stop stop-opacity="1" stop-color="rgb(16.023254%, 15.411377%, 61.332703%)" offset="0.613281"/><stop stop-opacity="1" stop-color="rgb(16.22467%, 15.605164%, 62.101746%)" offset="0.617188"/><stop stop-opacity="1" stop-color="rgb(16.426086%, 15.797424%, 62.870789%)" offset="0.621094"/><stop stop-opacity="1" stop-color="rgb(16.627502%, 15.991211%, 63.641357%)" offset="0.625"/><stop stop-opacity="1" stop-color="rgb(16.828918%, 16.184998%, 64.4104%)" offset="0.628906"/><stop stop-opacity="1" stop-color="rgb(17.030334%, 16.378784%, 65.180969%)" offset="0.632813"/><stop stop-opacity="1" stop-color="rgb(17.230225%, 16.571045%, 65.950012%)" offset="0.636719"/><stop stop-opacity="1" stop-color="rgb(17.431641%, 16.764832%, 66.720581%)" offset="0.640625"/><stop stop-opacity="1" stop-color="rgb(17.633057%, 16.958618%, 67.489624%)" offset="0.644531"/><stop stop-opacity="1" stop-color="rgb(17.834473%, 17.152405%, 68.258667%)" offset="0.648438"/><stop stop-opacity="1" stop-color="rgb(18.034363%, 17.344666%, 69.02771%)" offset="0.652344"/><stop stop-opacity="1" stop-color="rgb(18.235779%, 17.538452%, 69.798279%)" offset="0.65625"/><stop stop-opacity="1" stop-color="rgb(18.437195%, 17.732239%, 70.567322%)" offset="0.660156"/><stop stop-opacity="1" stop-color="rgb(18.638611%, 17.926025%, 71.337891%)" offset="0.664063"/><stop stop-opacity="1" stop-color="rgb(18.838501%, 18.118286%, 72.106934%)" offset="0.667969"/><stop stop-opacity="1" stop-color="rgb(19.039917%, 18.312073%, 72.877502%)" offset="0.671875"/><stop stop-opacity="1" stop-color="rgb(19.241333%, 18.505859%, 73.646545%)" offset="0.675781"/><stop stop-opacity="1" stop-color="rgb(19.442749%, 18.699646%, 74.417114%)" offset="0.679688"/><stop stop-opacity="1" stop-color="rgb(19.644165%, 18.891907%, 75.186157%)" offset="0.683594"/><stop stop-opacity="1" stop-color="rgb(19.845581%, 19.085693%, 75.9552%)" offset="0.6875"/><stop stop-opacity="1" stop-color="rgb(20.045471%, 19.277954%, 76.724243%)" offset="0.691406"/><stop stop-opacity="1" stop-color="rgb(20.246887%, 19.471741%, 77.494812%)" offset="0.695313"/><stop stop-opacity="1" stop-color="rgb(20.317078%, 19.540405%, 77.766418%)" offset="0.699219"/><stop stop-opacity="1" stop-color="rgb(20.388794%, 19.60907%, 78.039551%)" offset="0.703125"/><stop stop-opacity="1" stop-color="rgb(20.388794%, 19.60907%, 78.039551%)" offset="0.71875"/><stop stop-opacity="1" stop-color="rgb(20.388794%, 19.60907%, 78.039551%)" offset="0.75"/><stop stop-opacity="1" stop-color="rgb(20.388794%, 19.60907%, 78.039551%)" offset="1"/></linearGradient><clipPath id="94423efdc1"><rect x="0" width="375" y="0" height="251"/></clipPath><clipPath id="83c6c37084"><path d="M 0 0.0429688 L 375 0.0429688 L 375 250.542969 L 0 250.542969 Z M 0 0.0429688 " clip-rule="nonzero"/></clipPath><clipPath id="9828665dd5"><rect x="0" width="375" y="0" height="251"/></clipPath><clipPath id="a4c78d8aa0"><rect x="0" width="375" y="0" height="251"/></clipPath><mask id="636d70a998"><g filter="url(#b936053277)"><g transform="matrix(1, 0, 0, 1, 0, 0)"><g clip-path="url(#a4c78d8aa0)"><g clip-path="url(#83c6c37084)"><g transform="matrix(1, 0, 0, 1, 0, 0)"><g clip-path="url(#9828665dd5)"><g fill="#000000" fill-opacity="1"><g transform="translate(136.250247, 120.793624)"><g><path d="M 14.171875 0.296875 C 10.503906 0.296875 7.476562 -0.5625 5.09375 -2.28125 C 2.707031 -4 1.414062 -6.519531 1.21875 -9.84375 L 11.453125 -9.84375 C 11.585938 -8.082031 12.363281 -7.203125 13.78125 -7.203125 C 14.300781 -7.203125 14.742188 -7.320312 15.109375 -7.5625 C 15.472656 -7.8125 15.65625 -8.195312 15.65625 -8.71875 C 15.65625 -9.4375 15.265625 -10.019531 14.484375 -10.46875 C 13.703125 -10.914062 12.488281 -11.429688 10.84375 -12.015625 C 8.875 -12.703125 7.242188 -13.378906 5.953125 -14.046875 C 4.671875 -14.710938 3.566406 -15.679688 2.640625 -16.953125 C 1.710938 -18.222656 1.265625 -19.859375 1.296875 -21.859375 C 1.296875 -23.847656 1.804688 -25.539062 2.828125 -26.9375 C 3.859375 -28.34375 5.265625 -29.40625 7.046875 -30.125 C 8.828125 -30.851562 10.828125 -31.21875 13.046875 -31.21875 C 16.804688 -31.21875 19.789062 -30.347656 22 -28.609375 C 24.21875 -26.878906 25.382812 -24.441406 25.5 -21.296875 L 15.125 -21.296875 C 15.101562 -22.160156 14.890625 -22.78125 14.484375 -23.15625 C 14.078125 -23.53125 13.582031 -23.71875 13 -23.71875 C 12.601562 -23.71875 12.273438 -23.578125 12.015625 -23.296875 C 11.753906 -23.023438 11.625 -22.644531 11.625 -22.15625 C 11.625 -21.457031 12.003906 -20.882812 12.765625 -20.4375 C 13.535156 -19.988281 14.757812 -19.445312 16.4375 -18.8125 C 18.375 -18.09375 19.96875 -17.398438 21.21875 -16.734375 C 22.476562 -16.066406 23.570312 -15.140625 24.5 -13.953125 C 25.425781 -12.773438 25.890625 -11.289062 25.890625 -9.5 C 25.890625 -7.613281 25.425781 -5.925781 24.5 -4.4375 C 23.570312 -2.957031 22.226562 -1.796875 20.46875 -0.953125 C 18.707031 -0.117188 16.609375 0.296875 14.171875 0.296875 Z M 14.171875 0.296875 "/></g></g></g><g fill="#000000" fill-opacity="1"><g transform="translate(163.342565, 120.793624)"><g><path d="M 17.125 0.296875 C 14.238281 0.296875 11.585938 -0.378906 9.171875 -1.734375 C 6.753906 -3.085938 4.835938 -4.960938 3.421875 -7.359375 C 2.003906 -9.765625 1.296875 -12.472656 1.296875 -15.484375 C 1.296875 -18.484375 2.003906 -21.179688 3.421875 -23.578125 C 4.835938 -25.984375 6.753906 -27.859375 9.171875 -29.203125 C 11.585938 -30.546875 14.238281 -31.21875 17.125 -31.21875 C 20.019531 -31.21875 22.664062 -30.546875 25.0625 -29.203125 C 27.457031 -27.859375 29.351562 -25.984375 30.75 -23.578125 C 32.15625 -21.179688 32.859375 -18.484375 32.859375 -15.484375 C 32.859375 -12.472656 32.15625 -9.765625 30.75 -7.359375 C 29.351562 -4.960938 27.445312 -3.085938 25.03125 -1.734375 C 22.625 -0.378906 19.988281 0.296875 17.125 0.296875 Z M 17.125 -8.671875 C 19.03125 -8.671875 20.503906 -9.285156 21.546875 -10.515625 C 22.585938 -11.742188 23.109375 -13.398438 23.109375 -15.484375 C 23.109375 -17.585938 22.585938 -19.253906 21.546875 -20.484375 C 20.503906 -21.710938 19.03125 -22.328125 17.125 -22.328125 C 15.1875 -22.328125 13.695312 -21.710938 12.65625 -20.484375 C 11.613281 -19.253906 11.09375 -17.585938 11.09375 -15.484375 C 11.09375 -13.398438 11.613281 -11.742188 12.65625 -10.515625 C 13.695312 -9.285156 15.1875 -8.671875 17.125 -8.671875 Z M 17.125 -8.671875 "/></g></g></g><g fill="#000000" fill-opacity="1"><g transform="translate(197.500567, 120.793624)"><g><path d="M 39.0625 -30.703125 L 39.0625 0 L 29.484375 0 L 29.484375 -15.3125 L 24.765625 0 L 16.515625 0 L 11.796875 -15.3125 L 11.796875 0 L 2.171875 0 L 2.171875 -30.703125 L 13.96875 -30.703125 L 20.71875 -12.265625 L 27.3125 -30.703125 Z M 39.0625 -30.703125 "/></g></g></g><g fill="#000000" fill-opacity="1"><g transform="translate(109.027592, 159.043621)"><g><path d="M 26.28125 -30.703125 L 26.28125 -23.0625 L 18.125 -23.0625 L 18.125 0 L 8.5 0 L 8.5 -23.0625 L 0.4375 -23.0625 L 0.4375 -30.703125 Z M 26.28125 -30.703125 "/></g></g></g><g fill="#000000" fill-opacity="1"><g transform="translate(135.729781, 159.043621)"><g><path d="M 30.5625 -30.703125 L 30.5625 0 L 20.9375 0 L 20.9375 -11.96875 L 11.796875 -11.96875 L 11.796875 0 L 2.171875 0 L 2.171875 -30.703125 L 11.796875 -30.703125 L 11.796875 -19.640625 L 20.9375 -19.640625 L 20.9375 -30.703125 Z M 30.5625 -30.703125 "/></g></g></g><g fill="#000000" fill-opacity="1"><g transform="translate(168.457307, 159.043621)"><g><path d="M 11.796875 -23.03125 L 11.796875 -19.25 L 21.328125 -19.25 L 21.328125 -12.015625 L 11.796875 -12.015625 L 11.796875 -7.671875 L 22.640625 -7.671875 L 22.640625 0 L 2.171875 0 L 2.171875 -30.703125 L 22.640625 -30.703125 L 22.640625 -23.03125 Z M 11.796875 -23.03125 "/></g></g></g><g fill="#000000" fill-opacity="1"><g transform="translate(192.558631, 159.043621)"><g><path d="M 30.5625 -30.703125 L 30.5625 0 L 20.9375 0 L 20.9375 -11.96875 L 11.796875 -11.96875 L 11.796875 0 L 2.171875 0 L 2.171875 -30.703125 L 11.796875 -30.703125 L 11.796875 -19.640625 L 20.9375 -19.640625 L 20.9375 -30.703125 Z M 30.5625 -30.703125 "/></g></g></g><g fill="#000000" fill-opacity="1"><g transform="translate(225.286156, 159.043621)"><g><path d="M 11.796875 -30.703125 L 11.796875 0 L 2.171875 0 L 2.171875 -30.703125 Z M 11.796875 -30.703125 "/></g></g></g><g fill="#000000" fill-opacity="1"><g transform="translate(239.244124, 159.043621)"><g><path d="M 26.28125 -30.703125 L 26.28125 -23.0625 L 18.125 -23.0625 L 18.125 0 L 8.5 0 L 8.5 -23.0625 L 0.4375 -23.0625 L 0.4375 -30.703125 Z M 26.28125 -30.703125 "/></g></g></g></g></g></g></g></g></g></mask><clipPath id="11d02fe786"><path d="M 22.378906 0.0429688 L 352.378906 0.0429688 L 352.378906 250.542969 L 22.378906 250.542969 Z M 22.378906 0.0429688 " clip-rule="nonzero"/></clipPath><clipPath id="21e6514c6d"><rect x="0" width="375" y="0" height="251"/></clipPath><clipPath id="140e7ddb6d"><rect x="0" width="375" y="0" height="251"/></clipPath><clipPath id="16029c2b33"><path d="M 75.160156 232.070312 L 301.660156 232.070312 L 301.660156 283.820312 L 75.160156 283.820312 Z M 75.160156 232.070312 " clip-rule="nonzero"/></clipPath><clipPath id="04455eca61"><path d="M 0.160156 0.0703125 L 226.660156 0.0703125 L 226.660156 51.820312 L 0.160156 51.820312 Z M 0.160156 0.0703125 " clip-rule="nonzero"/></clipPath><clipPath id="db8d530f7e"><path d="M 15.160156 0.0703125 L 211.660156 0.0703125 L 211.660156 51.070312 L 15.160156 51.070312 Z M 15.160156 0.0703125 " clip-rule="nonzero"/></clipPath><linearGradient x1="125.07" gradientTransform="matrix(0.749281, 0, 0, 0.745883, 19.695452, 19.234837)" y1="42.679383" x2="125.07" gradientUnits="userSpaceOnUse" y2="-25.69599" id="b18ca9e69f"><stop stop-opacity="1" stop-color="rgb(0%, 0%, 0%)" offset="0"/><stop stop-opacity="1" stop-color="rgb(0%, 0%, 0%)" offset="0.25"/><stop stop-opacity="1" stop-color="rgb(0%, 0%, 0%)" offset="0.375"/><stop stop-opacity="1" stop-color="rgb(0.296021%, 0.285339%, 1.13678%)" offset="0.378906"/><stop stop-opacity="1" stop-color="rgb(0.593567%, 0.570679%, 2.27356%)" offset="0.382812"/><stop stop-opacity="1" stop-color="rgb(0.914001%, 0.878906%, 3.49884%)" offset="0.386719"/><stop stop-opacity="1" stop-color="rgb(1.234436%, 1.187134%, 4.725647%)" offset="0.390625"/><stop stop-opacity="1" stop-color="rgb(1.554871%, 1.495361%, 5.952454%)" offset="0.394531"/><stop stop-opacity="1" stop-color="rgb(1.875305%, 1.803589%, 7.17926%)" offset="0.398438"/><stop stop-opacity="1" stop-color="rgb(2.19574%, 2.111816%, 8.404541%)" offset="0.402344"/><stop stop-opacity="1" stop-color="rgb(2.516174%, 2.420044%, 9.631348%)" offset="0.40625"/><stop stop-opacity="1" stop-color="rgb(2.836609%, 2.726746%, 10.856628%)" offset="0.410156"/><stop stop-opacity="1" stop-color="rgb(3.157043%, 3.034973%, 12.083435%)" offset="0.414062"/><stop stop-opacity="1" stop-color="rgb(3.475952%, 3.343201%, 13.308716%)" offset="0.417969"/><stop stop-opacity="1" stop-color="rgb(3.796387%, 3.651428%, 14.535522%)" offset="0.421875"/><stop stop-opacity="1" stop-color="rgb(4.116821%, 3.959656%, 15.760803%)" offset="0.425781"/><stop stop-opacity="1" stop-color="rgb(4.437256%, 4.267883%, 16.98761%)" offset="0.429688"/><stop stop-opacity="1" stop-color="rgb(4.75769%, 4.576111%, 18.212891%)" offset="0.433594"/><stop stop-opacity="1" stop-color="rgb(5.078125%, 4.884338%, 19.439697%)" offset="0.4375"/><stop stop-opacity="1" stop-color="rgb(5.39856%, 5.192566%, 20.664978%)" offset="0.441406"/><stop stop-opacity="1" stop-color="rgb(5.718994%, 5.500793%, 21.891785%)" offset="0.445312"/><stop stop-opacity="1" stop-color="rgb(6.039429%, 5.809021%, 23.117065%)" offset="0.449219"/><stop stop-opacity="1" stop-color="rgb(6.359863%, 6.117249%, 24.343872%)" offset="0.453125"/><stop stop-opacity="1" stop-color="rgb(6.680298%, 6.42395%, 25.569153%)" offset="0.457031"/><stop stop-opacity="1" stop-color="rgb(7.000732%, 6.732178%, 26.795959%)" offset="0.460938"/><stop stop-opacity="1" stop-color="rgb(7.321167%, 7.040405%, 28.02124%)" offset="0.464844"/><stop stop-opacity="1" stop-color="rgb(7.641602%, 7.348633%, 29.248047%)" offset="0.46875"/><stop stop-opacity="1" stop-color="rgb(7.962036%, 7.65686%, 30.473328%)" offset="0.472656"/><stop stop-opacity="1" stop-color="rgb(8.282471%, 7.965088%, 31.700134%)" offset="0.476562"/><stop stop-opacity="1" stop-color="rgb(8.602905%, 8.273315%, 32.925415%)" offset="0.480469"/><stop stop-opacity="1" stop-color="rgb(8.92334%, 8.581543%, 34.152222%)" offset="0.484375"/><stop stop-opacity="1" stop-color="rgb(9.243774%, 8.889771%, 35.379028%)" offset="0.488281"/><stop stop-opacity="1" stop-color="rgb(9.564209%, 9.197998%, 36.605835%)" offset="0.492188"/><stop stop-opacity="1" stop-color="rgb(9.883118%, 9.506226%, 37.831116%)" offset="0.496094"/><stop stop-opacity="1" stop-color="rgb(10.203552%, 9.814453%, 39.057922%)" offset="0.5"/><stop stop-opacity="1" stop-color="rgb(10.523987%, 10.121155%, 40.283203%)" offset="0.503906"/><stop stop-opacity="1" stop-color="rgb(10.844421%, 10.429382%, 41.51001%)" offset="0.507812"/><stop stop-opacity="1" stop-color="rgb(11.164856%, 10.73761%, 42.735291%)" offset="0.511719"/><stop stop-opacity="1" stop-color="rgb(11.485291%, 11.045837%, 43.962097%)" offset="0.515625"/><stop stop-opacity="1" stop-color="rgb(11.805725%, 11.354065%, 45.187378%)" offset="0.519531"/><stop stop-opacity="1" stop-color="rgb(12.12616%, 11.662292%, 46.414185%)" offset="0.523438"/><stop stop-opacity="1" stop-color="rgb(12.446594%, 11.97052%, 47.639465%)" offset="0.527344"/><stop stop-opacity="1" stop-color="rgb(12.767029%, 12.278748%, 48.866272%)" offset="0.53125"/><stop stop-opacity="1" stop-color="rgb(13.087463%, 12.586975%, 50.091553%)" offset="0.535156"/><stop stop-opacity="1" stop-color="rgb(13.407898%, 12.895203%, 51.318359%)" offset="0.539063"/><stop stop-opacity="1" stop-color="rgb(13.728333%, 13.20343%, 52.54364%)" offset="0.542969"/><stop stop-opacity="1" stop-color="rgb(14.048767%, 13.511658%, 53.770447%)" offset="0.546875"/><stop stop-opacity="1" stop-color="rgb(14.369202%, 13.818359%, 54.995728%)" offset="0.550781"/><stop stop-opacity="1" stop-color="rgb(14.689636%, 14.126587%, 56.222534%)" offset="0.554688"/><stop stop-opacity="1" stop-color="rgb(15.010071%, 14.434814%, 57.447815%)" offset="0.558594"/><stop stop-opacity="1" stop-color="rgb(15.330505%, 14.743042%, 58.674622%)" offset="0.5625"/><stop stop-opacity="1" stop-color="rgb(15.649414%, 15.05127%, 59.899902%)" offset="0.566406"/><stop stop-opacity="1" stop-color="rgb(15.969849%, 15.359497%, 61.126709%)" offset="0.570312"/><stop stop-opacity="1" stop-color="rgb(16.290283%, 15.667725%, 62.35199%)" offset="0.574219"/><stop stop-opacity="1" stop-color="rgb(16.610718%, 15.975952%, 63.578796%)" offset="0.578125"/><stop stop-opacity="1" stop-color="rgb(16.931152%, 16.28418%, 64.805603%)" offset="0.582031"/><stop stop-opacity="1" stop-color="rgb(17.251587%, 16.592407%, 66.03241%)" offset="0.585937"/><stop stop-opacity="1" stop-color="rgb(17.572021%, 16.900635%, 67.25769%)" offset="0.589844"/><stop stop-opacity="1" stop-color="rgb(17.892456%, 17.208862%, 68.484497%)" offset="0.59375"/><stop stop-opacity="1" stop-color="rgb(18.212891%, 17.515564%, 69.709778%)" offset="0.597656"/><stop stop-opacity="1" stop-color="rgb(18.533325%, 17.823792%, 70.936584%)" offset="0.601562"/><stop stop-opacity="1" stop-color="rgb(18.85376%, 18.132019%, 72.161865%)" offset="0.605469"/><stop stop-opacity="1" stop-color="rgb(19.174194%, 18.440247%, 73.388672%)" offset="0.609375"/><stop stop-opacity="1" stop-color="rgb(19.494629%, 18.748474%, 74.613953%)" offset="0.613281"/><stop stop-opacity="1" stop-color="rgb(19.815063%, 19.056702%, 75.840759%)" offset="0.617188"/><stop stop-opacity="1" stop-color="rgb(20.101929%, 19.332886%, 76.939392%)" offset="0.621094"/><stop stop-opacity="1" stop-color="rgb(20.388794%, 19.60907%, 78.039551%)" offset="0.625"/><stop stop-opacity="1" stop-color="rgb(20.388794%, 19.60907%, 78.039551%)" offset="0.75"/><stop stop-opacity="1" stop-color="rgb(20.388794%, 19.60907%, 78.039551%)" offset="1"/></linearGradient><clipPath id="2a76054c62"><rect x="0" width="227" y="0" height="52"/></clipPath><clipPath id="7486290df6"><path d="M 0.160156 0.0703125 L 226.660156 0.0703125 L 226.660156 51.820312 L 0.160156 51.820312 Z M 0.160156 0.0703125 " clip-rule="nonzero"/></clipPath><clipPath id="a006167484"><rect x="0" width="227" y="0" height="52"/></clipPath><clipPath id="9667f7bdb6"><rect x="0" width="227" y="0" height="52"/></clipPath><mask id="be79cadcac"><g filter="url(#b936053277)"><g><g clip-path="url(#9667f7bdb6)"><g clip-path="url(#7486290df6)"><g><g clip-path="url(#a006167484)"><g fill="#000000" fill-opacity="1"><g transform="translate(34.388867, 28.568645)"><g><path d="M 3.328125 -6.8125 C 4.035156 -6.8125 4.65625 -6.664062 5.1875 -6.375 C 5.726562 -6.09375 6.140625 -5.691406 6.421875 -5.171875 C 6.710938 -4.660156 6.859375 -4.078125 6.859375 -3.421875 C 6.859375 -2.773438 6.710938 -2.191406 6.421875 -1.671875 C 6.140625 -1.148438 5.726562 -0.738281 5.1875 -0.4375 C 4.65625 -0.144531 4.035156 0 3.328125 0 L 0.484375 0 L 0.484375 -6.8125 Z M 3.125 -1.90625 C 3.601562 -1.90625 3.984375 -2.035156 4.265625 -2.296875 C 4.554688 -2.554688 4.703125 -2.929688 4.703125 -3.421875 C 4.703125 -3.910156 4.554688 -4.285156 4.265625 -4.546875 C 3.984375 -4.816406 3.601562 -4.953125 3.125 -4.953125 L 2.625 -4.953125 L 2.625 -1.90625 Z M 3.125 -1.90625 "/></g></g></g><g fill="#000000" fill-opacity="1"><g transform="translate(43.464489, 28.568645)"><g><path d="M 2.625 -5.109375 L 2.625 -4.28125 L 4.734375 -4.28125 L 4.734375 -2.671875 L 2.625 -2.671875 L 2.625 -1.703125 L 5.03125 -1.703125 L 5.03125 0 L 0.484375 0 L 0.484375 -6.8125 L 5.03125 -6.8125 L 5.03125 -5.109375 Z M 2.625 -5.109375 "/></g></g></g><g fill="#000000" fill-opacity="1"><g transform="translate(50.740974, 28.568645)"><g><path d="M 3.140625 0.0625 C 2.328125 0.0625 1.65625 -0.125 1.125 -0.5 C 0.601562 -0.882812 0.316406 -1.445312 0.265625 -2.1875 L 2.546875 -2.1875 C 2.578125 -1.789062 2.75 -1.59375 3.0625 -1.59375 C 3.175781 -1.59375 3.269531 -1.617188 3.34375 -1.671875 C 3.425781 -1.734375 3.46875 -1.820312 3.46875 -1.9375 C 3.46875 -2.09375 3.378906 -2.21875 3.203125 -2.3125 C 3.035156 -2.414062 2.769531 -2.535156 2.40625 -2.671875 C 1.96875 -2.816406 1.601562 -2.960938 1.3125 -3.109375 C 1.03125 -3.265625 0.785156 -3.484375 0.578125 -3.765625 C 0.378906 -4.046875 0.28125 -4.40625 0.28125 -4.84375 C 0.28125 -5.289062 0.394531 -5.671875 0.625 -5.984375 C 0.851562 -6.296875 1.164062 -6.53125 1.5625 -6.6875 C 1.957031 -6.851562 2.398438 -6.9375 2.890625 -6.9375 C 3.722656 -6.9375 4.382812 -6.742188 4.875 -6.359375 C 5.375 -5.972656 5.632812 -5.425781 5.65625 -4.71875 L 3.359375 -4.71875 C 3.347656 -4.914062 3.296875 -5.054688 3.203125 -5.140625 C 3.117188 -5.222656 3.015625 -5.265625 2.890625 -5.265625 C 2.796875 -5.265625 2.71875 -5.234375 2.65625 -5.171875 C 2.601562 -5.109375 2.578125 -5.023438 2.578125 -4.921875 C 2.578125 -4.765625 2.660156 -4.632812 2.828125 -4.53125 C 3.003906 -4.4375 3.273438 -4.316406 3.640625 -4.171875 C 4.078125 -4.015625 4.429688 -3.863281 4.703125 -3.71875 C 4.984375 -3.570312 5.226562 -3.363281 5.4375 -3.09375 C 5.644531 -2.832031 5.75 -2.503906 5.75 -2.109375 C 5.75 -1.691406 5.644531 -1.316406 5.4375 -0.984375 C 5.226562 -0.648438 4.925781 -0.390625 4.53125 -0.203125 C 4.144531 -0.0234375 3.679688 0.0625 3.140625 0.0625 Z M 3.140625 0.0625 "/></g></g></g><g fill="#000000" fill-opacity="1"><g transform="translate(58.681308, 28.568645)"><g><path d="M 2.625 -6.8125 L 2.625 0 L 0.484375 0 L 0.484375 -6.8125 Z M 2.625 -6.8125 "/></g></g></g><g fill="#000000" fill-opacity="1"><g transform="translate(63.706454, 28.568645)"><g><path d="M 4.65625 -4.484375 C 4.570312 -4.617188 4.453125 -4.722656 4.296875 -4.796875 C 4.148438 -4.867188 3.96875 -4.90625 3.75 -4.90625 C 3.332031 -4.90625 3.007812 -4.769531 2.78125 -4.5 C 2.5625 -4.238281 2.453125 -3.878906 2.453125 -3.421875 C 2.453125 -2.890625 2.578125 -2.488281 2.828125 -2.21875 C 3.078125 -1.957031 3.460938 -1.828125 3.984375 -1.828125 C 4.472656 -1.828125 4.867188 -2.023438 5.171875 -2.421875 L 3.46875 -2.421875 L 3.46875 -3.9375 L 6.953125 -3.9375 L 6.953125 -1.796875 C 6.648438 -1.296875 6.238281 -0.863281 5.71875 -0.5 C 5.207031 -0.132812 4.550781 0.046875 3.75 0.046875 C 3.039062 0.046875 2.425781 -0.0976562 1.90625 -0.390625 C 1.382812 -0.679688 0.984375 -1.085938 0.703125 -1.609375 C 0.421875 -2.140625 0.28125 -2.742188 0.28125 -3.421875 C 0.28125 -4.085938 0.421875 -4.679688 0.703125 -5.203125 C 0.984375 -5.734375 1.382812 -6.144531 1.90625 -6.4375 C 2.425781 -6.726562 3.035156 -6.875 3.734375 -6.875 C 4.628906 -6.875 5.351562 -6.660156 5.90625 -6.234375 C 6.46875 -5.804688 6.800781 -5.222656 6.90625 -4.484375 Z M 4.65625 -4.484375 "/></g></g></g><g fill="#000000" fill-opacity="1"><g transform="translate(72.868673, 28.568645)"><g><path d="M 7.015625 0 L 4.875 0 L 2.625 -3.421875 L 2.625 0 L 0.484375 0 L 0.484375 -6.8125 L 2.625 -6.8125 L 4.875 -3.328125 L 4.875 -6.8125 L 7.015625 -6.8125 Z M 7.015625 0 "/></g></g></g><g fill="#000000" fill-opacity="1"><g transform="translate(82.290662, 28.568645)"><g><path d="M 1.546875 0.078125 C 1.171875 0.078125 0.867188 -0.0195312 0.640625 -0.21875 C 0.421875 -0.414062 0.3125 -0.664062 0.3125 -0.96875 C 0.3125 -1.28125 0.421875 -1.535156 0.640625 -1.734375 C 0.867188 -1.941406 1.171875 -2.046875 1.546875 -2.046875 C 1.910156 -2.046875 2.203125 -1.941406 2.421875 -1.734375 C 2.648438 -1.535156 2.765625 -1.28125 2.765625 -0.96875 C 2.765625 -0.664062 2.648438 -0.414062 2.421875 -0.21875 C 2.203125 -0.0195312 1.910156 0.078125 1.546875 0.078125 Z M 1.546875 0.078125 "/></g></g></g><g fill="#000000" fill-opacity="1"><g transform="translate(87.286946, 28.568645)"><g/></g></g><g fill="#000000" fill-opacity="1"><g transform="translate(90.849698, 28.568645)"><g><path d="M 0.28125 -3.421875 C 0.28125 -4.085938 0.414062 -4.679688 0.6875 -5.203125 C 0.96875 -5.734375 1.359375 -6.144531 1.859375 -6.4375 C 2.367188 -6.726562 2.96875 -6.875 3.65625 -6.875 C 4.25 -6.875 4.773438 -6.765625 5.234375 -6.546875 C 5.703125 -6.328125 6.082031 -6.015625 6.375 -5.609375 C 6.664062 -5.203125 6.859375 -4.734375 6.953125 -4.203125 L 4.703125 -4.203125 C 4.597656 -4.421875 4.453125 -4.59375 4.265625 -4.71875 C 4.078125 -4.84375 3.863281 -4.90625 3.625 -4.90625 C 3.257812 -4.90625 2.972656 -4.769531 2.765625 -4.5 C 2.554688 -4.226562 2.453125 -3.867188 2.453125 -3.421875 C 2.453125 -2.960938 2.554688 -2.597656 2.765625 -2.328125 C 2.972656 -2.054688 3.257812 -1.921875 3.625 -1.921875 C 3.863281 -1.921875 4.078125 -1.984375 4.265625 -2.109375 C 4.453125 -2.234375 4.597656 -2.410156 4.703125 -2.640625 L 6.953125 -2.640625 C 6.859375 -2.097656 6.664062 -1.625 6.375 -1.21875 C 6.082031 -0.8125 5.703125 -0.5 5.234375 -0.28125 C 4.773438 -0.0625 4.25 0.046875 3.65625 0.046875 C 2.96875 0.046875 2.367188 -0.0976562 1.859375 -0.390625 C 1.359375 -0.679688 0.96875 -1.085938 0.6875 -1.609375 C 0.414062 -2.140625 0.28125 -2.742188 0.28125 -3.421875 Z M 0.28125 -3.421875 "/></g></g></g><g fill="#000000" fill-opacity="1"><g transform="translate(100.02153, 28.568645)"><g><path d="M 3.796875 0.0625 C 3.160156 0.0625 2.570312 -0.0859375 2.03125 -0.390625 C 1.5 -0.691406 1.070312 -1.109375 0.75 -1.640625 C 0.4375 -2.171875 0.28125 -2.769531 0.28125 -3.4375 C 0.28125 -4.101562 0.4375 -4.703125 0.75 -5.234375 C 1.070312 -5.765625 1.5 -6.179688 2.03125 -6.484375 C 2.570312 -6.785156 3.160156 -6.9375 3.796875 -6.9375 C 4.441406 -6.9375 5.03125 -6.785156 5.5625 -6.484375 C 6.09375 -6.179688 6.515625 -5.765625 6.828125 -5.234375 C 7.140625 -4.703125 7.296875 -4.101562 7.296875 -3.4375 C 7.296875 -2.769531 7.140625 -2.171875 6.828125 -1.640625 C 6.515625 -1.109375 6.085938 -0.691406 5.546875 -0.390625 C 5.015625 -0.0859375 4.429688 0.0625 3.796875 0.0625 Z M 3.796875 -1.921875 C 4.222656 -1.921875 4.550781 -2.054688 4.78125 -2.328125 C 5.007812 -2.609375 5.125 -2.976562 5.125 -3.4375 C 5.125 -3.90625 5.007812 -4.273438 4.78125 -4.546875 C 4.550781 -4.816406 4.222656 -4.953125 3.796875 -4.953125 C 3.367188 -4.953125 3.039062 -4.816406 2.8125 -4.546875 C 2.582031 -4.273438 2.46875 -3.90625 2.46875 -3.4375 C 2.46875 -2.976562 2.582031 -2.609375 2.8125 -2.328125 C 3.039062 -2.054688 3.367188 -1.921875 3.796875 -1.921875 Z M 3.796875 -1.921875 "/></g></g></g><g fill="#000000" fill-opacity="1"><g transform="translate(109.530105, 28.568645)"><g><path d="M 3.328125 -6.8125 C 4.035156 -6.8125 4.65625 -6.664062 5.1875 -6.375 C 5.726562 -6.09375 6.140625 -5.691406 6.421875 -5.171875 C 6.710938 -4.660156 6.859375 -4.078125 6.859375 -3.421875 C 6.859375 -2.773438 6.710938 -2.191406 6.421875 -1.671875 C 6.140625 -1.148438 5.726562 -0.738281 5.1875 -0.4375 C 4.65625 -0.144531 4.035156 0 3.328125 0 L 0.484375 0 L 0.484375 -6.8125 Z M 3.125 -1.90625 C 3.601562 -1.90625 3.984375 -2.035156 4.265625 -2.296875 C 4.554688 -2.554688 4.703125 -2.929688 4.703125 -3.421875 C 4.703125 -3.910156 4.554688 -4.285156 4.265625 -4.546875 C 3.984375 -4.816406 3.601562 -4.953125 3.125 -4.953125 L 2.625 -4.953125 L 2.625 -1.90625 Z M 3.125 -1.90625 "/></g></g></g><g fill="#000000" fill-opacity="1"><g transform="translate(118.605727, 28.568645)"><g><path d="M 2.625 -5.109375 L 2.625 -4.28125 L 4.734375 -4.28125 L 4.734375 -2.671875 L 2.625 -2.671875 L 2.625 -1.703125 L 5.03125 -1.703125 L 5.03125 0 L 0.484375 0 L 0.484375 -6.8125 L 5.03125 -6.8125 L 5.03125 -5.109375 Z M 2.625 -5.109375 "/></g></g></g><g fill="#000000" fill-opacity="1"><g transform="translate(125.882212, 28.568645)"><g><path d="M 1.546875 0.078125 C 1.171875 0.078125 0.867188 -0.0195312 0.640625 -0.21875 C 0.421875 -0.414062 0.3125 -0.664062 0.3125 -0.96875 C 0.3125 -1.28125 0.421875 -1.535156 0.640625 -1.734375 C 0.867188 -1.941406 1.171875 -2.046875 1.546875 -2.046875 C 1.910156 -2.046875 2.203125 -1.941406 2.421875 -1.734375 C 2.648438 -1.535156 2.765625 -1.28125 2.765625 -0.96875 C 2.765625 -0.664062 2.648438 -0.414062 2.421875 -0.21875 C 2.203125 -0.0195312 1.910156 0.078125 1.546875 0.078125 Z M 1.546875 0.078125 "/></g></g></g><g fill="#000000" fill-opacity="1"><g transform="translate(130.878496, 28.568645)"><g/></g></g><g fill="#000000" fill-opacity="1"><g transform="translate(134.441248, 28.568645)"><g><path d="M 3.328125 -6.8125 C 4.035156 -6.8125 4.65625 -6.664062 5.1875 -6.375 C 5.726562 -6.09375 6.140625 -5.691406 6.421875 -5.171875 C 6.710938 -4.660156 6.859375 -4.078125 6.859375 -3.421875 C 6.859375 -2.773438 6.710938 -2.191406 6.421875 -1.671875 C 6.140625 -1.148438 5.726562 -0.738281 5.1875 -0.4375 C 4.65625 -0.144531 4.035156 0 3.328125 0 L 0.484375 0 L 0.484375 -6.8125 Z M 3.125 -1.90625 C 3.601562 -1.90625 3.984375 -2.035156 4.265625 -2.296875 C 4.554688 -2.554688 4.703125 -2.929688 4.703125 -3.421875 C 4.703125 -3.910156 4.554688 -4.285156 4.265625 -4.546875 C 3.984375 -4.816406 3.601562 -4.953125 3.125 -4.953125 L 2.625 -4.953125 L 2.625 -1.90625 Z M 3.125 -1.90625 "/></g></g></g><g fill="#000000" fill-opacity="1"><g transform="translate(143.51687, 28.568645)"><g><path d="M 2.625 -5.109375 L 2.625 -4.28125 L 4.734375 -4.28125 L 4.734375 -2.671875 L 2.625 -2.671875 L 2.625 -1.703125 L 5.03125 -1.703125 L 5.03125 0 L 0.484375 0 L 0.484375 -6.8125 L 5.03125 -6.8125 L 5.03125 -5.109375 Z M 2.625 -5.109375 "/></g></g></g><g fill="#000000" fill-opacity="1"><g transform="translate(150.793355, 28.568645)"><g><path d="M 2.625 -1.609375 L 4.671875 -1.609375 L 4.671875 0 L 0.484375 0 L 0.484375 -6.8125 L 2.625 -6.8125 Z M 2.625 -1.609375 "/></g></g></g><g fill="#000000" fill-opacity="1"><g transform="translate(157.588787, 28.568645)"><g><path d="M 2.625 -6.8125 L 2.625 0 L 0.484375 0 L 0.484375 -6.8125 Z M 2.625 -6.8125 "/></g></g></g><g fill="#000000" fill-opacity="1"><g transform="translate(162.613933, 28.568645)"><g><path d="M 7.34375 -6.8125 L 5.046875 0 L 2.296875 0 L 0 -6.8125 L 2.265625 -6.8125 L 3.671875 -2.125 L 5.078125 -6.8125 Z M 7.34375 -6.8125 "/></g></g></g><g fill="#000000" fill-opacity="1"><g transform="translate(171.881976, 28.568645)"><g><path d="M 2.625 -5.109375 L 2.625 -4.28125 L 4.734375 -4.28125 L 4.734375 -2.671875 L 2.625 -2.671875 L 2.625 -1.703125 L 5.03125 -1.703125 L 5.03125 0 L 0.484375 0 L 0.484375 -6.8125 L 5.03125 -6.8125 L 5.03125 -5.109375 Z M 2.625 -5.109375 "/></g></g></g><g fill="#000000" fill-opacity="1"><g transform="translate(179.158461, 28.568645)"><g><path d="M 3.90625 0 L 2.625 -2.4375 L 2.625 0 L 0.484375 0 L 0.484375 -6.8125 L 3.65625 -6.8125 C 4.207031 -6.8125 4.675781 -6.710938 5.0625 -6.515625 C 5.457031 -6.328125 5.753906 -6.0625 5.953125 -5.71875 C 6.148438 -5.382812 6.25 -5.003906 6.25 -4.578125 C 6.25 -4.117188 6.117188 -3.710938 5.859375 -3.359375 C 5.609375 -3.015625 5.25 -2.765625 4.78125 -2.609375 L 6.25 0 Z M 2.625 -3.875 L 3.46875 -3.875 C 3.664062 -3.875 3.816406 -3.914062 3.921875 -4 C 4.023438 -4.09375 4.078125 -4.242188 4.078125 -4.453125 C 4.078125 -4.628906 4.023438 -4.769531 3.921875 -4.875 C 3.816406 -4.976562 3.664062 -5.03125 3.46875 -5.03125 L 2.625 -5.03125 Z M 2.625 -3.875 "/></g></g></g><g fill="#000000" fill-opacity="1"><g transform="translate(187.531748, 28.568645)"><g><path d="M 1.546875 0.078125 C 1.171875 0.078125 0.867188 -0.0195312 0.640625 -0.21875 C 0.421875 -0.414062 0.3125 -0.664062 0.3125 -0.96875 C 0.3125 -1.28125 0.421875 -1.535156 0.640625 -1.734375 C 0.867188 -1.941406 1.171875 -2.046875 1.546875 -2.046875 C 1.910156 -2.046875 2.203125 -1.941406 2.421875 -1.734375 C 2.648438 -1.535156 2.765625 -1.28125 2.765625 -0.96875 C 2.765625 -0.664062 2.648438 -0.414062 2.421875 -0.21875 C 2.203125 -0.0195312 1.910156 0.078125 1.546875 0.078125 Z M 1.546875 0.078125 "/></g></g></g></g></g></g></g></g></g></mask><clipPath id="73c21d5b37"><path d="M 15.160156 0.0703125 L 211.660156 0.0703125 L 211.660156 51.070312 L 15.160156 51.070312 Z M 15.160156 0.0703125 " clip-rule="nonzero"/></clipPath><clipPath id="ed85722963"><rect x="0" width="227" y="0" height="52"/></clipPath><clipPath id="ee21383718"><rect x="0" width="227" y="0" height="52"/></clipPath></defs><g clip-path="url(#e464ee0d92)"><path fill="#bd9780" d="M 174.007812 157.585938 L 184.261719 147.332031 C 184.785156 146.808594 185.640625 146.808594 186.164062 147.332031 L 195.199219 156.367188 C 196.171875 157.34375 197.757812 157.34375 198.730469 156.367188 L 201.871094 153.226562 C 202.34375 152.757812 202.601562 152.128906 202.601562 151.460938 C 202.601562 150.792969 202.34375 150.167969 201.871094 149.695312 L 186.976562 134.804688 C 186.003906 133.832031 184.421875 133.832031 183.445312 134.804688 L 167.335938 150.914062 C 166.359375 151.890625 166.359375 153.472656 167.335938 154.449219 L 170.476562 157.585938 C 170.960938 158.074219 171.601562 158.316406 172.242188 158.316406 C 172.878906 158.316406 173.519531 158.074219 174.007812 157.585938 Z M 216.210938 150.605469 L 219.351562 147.464844 C 219.824219 146.992188 220.082031 146.363281 220.082031 145.699219 C 220.082031 145.03125 219.824219 144.402344 219.351562 143.929688 L 198.601562 123.179688 C 197.628906 122.207031 196.042969 122.207031 195.070312 123.179688 L 191.929688 126.320312 C 190.957031 127.292969 190.957031 128.878906 191.929688 129.851562 L 212.679688 150.605469 C 213.167969 151.089844 213.804688 151.332031 214.445312 151.332031 C 215.085938 151.332031 215.726562 151.089844 216.210938 150.605469 Z M 160.554688 146.632812 C 159.886719 146.632812 159.261719 146.371094 158.789062 145.902344 L 155.648438 142.761719 C 155.175781 142.289062 154.917969 141.660156 154.917969 140.996094 C 154.917969 140.328125 155.175781 139.699219 155.648438 139.230469 L 189.324219 105.554688 C 190.296875 104.582031 191.878906 104.582031 192.855469 105.554688 L 195.996094 108.695312 C 196.96875 109.667969 196.96875 111.253906 195.996094 112.226562 L 162.320312 145.902344 C 161.847656 146.371094 161.222656 146.632812 160.554688 146.632812 " fill-opacity="1" fill-rule="nonzero"/></g><g clip-path="url(#e8291cb738)"><g transform="matrix(1, 0, 0, 1, 0, 78)"><g clip-path="url(#140e7ddb6d)"><g clip-path="url(#ab17132a0e)"><g mask="url(#636d70a998)"><g transform="matrix(1, 0, 0, 1, 0, 0)"><g clip-path="url(#21e6514c6d)"><g clip-path="url(#11d02fe786)"><path fill="url(#b5d9d45825)" d="M 22.378906 0.0429688 L 22.378906 250.542969 L 352.378906 250.542969 L 352.378906 0.0429688 Z M 22.378906 0.0429688 " fill-rule="nonzero"/></g></g></g></g></g></g></g></g><g clip-path="url(#16029c2b33)"><g transform="matrix(1, 0, 0, 1, 75, 232)"><g clip-path="url(#ee21383718)"><g clip-path="url(#04455eca61)"><g mask="url(#be79cadcac)"><g><g clip-path="url(#ed85722963)"><g clip-path="url(#73c21d5b37)"><path fill="url(#b18ca9e69f)" d="M 15.160156 0.0703125 L 15.160156 51.070312 L 211.660156 51.070312 L 211.660156 0.0703125 Z M 15.160156 0.0703125 " fill-rule="nonzero"/></g></g></g></g></g></g></g></g></svg>